<svg width="26" height="26" viewBox="0 0 26 26" fill="none" xmlns="http://www.w3.org/2000/svg">
<g id="shopping-cart 1" clip-path="url(#clip0_313_311)">
<path id="Vector (Stroke)" fill-rule="evenodd" clip-rule="evenodd" d="M5.31836 22.7501C5.31836 21.5535 6.28841 20.5834 7.48503 20.5834C8.68164 20.5834 9.65169 21.5535 9.65169 22.7501C9.65169 23.9467 8.68164 24.9168 7.48503 24.9168C6.28841 24.9168 5.31836 23.9467 5.31836 22.7501Z" fill="#5C543E"/>
<path id="Vector (Stroke)_2" fill-rule="evenodd" clip-rule="evenodd" d="M17.2349 22.7501C17.2349 21.5535 18.2049 20.5834 19.4015 20.5834C20.5981 20.5834 21.5682 21.5535 21.5682 22.7501C21.5682 23.9467 20.5981 24.9168 19.4015 24.9168C18.2049 24.9168 17.2349 23.9467 17.2349 22.7501Z" fill="#5C543E"/>
<path id="Vector (Stroke)_3" fill-rule="evenodd" clip-rule="evenodd" d="M-0.0444336 2.22072C-0.0444336 1.62241 0.440591 1.13739 1.0389 1.13739H3.20557C3.71644 1.13739 4.15789 1.4943 4.26488 1.99385L5.24154 6.55406H22.7489C23.0775 6.55406 23.3883 6.70317 23.5939 6.95946C23.7995 7.21574 23.8777 7.55149 23.8065 7.87225L22.0194 15.9195C22.0193 15.9198 22.0195 15.9192 22.0194 15.9195C21.8602 16.6415 21.4595 17.2885 20.8836 17.7522C20.3074 18.2161 19.5903 18.4695 18.8506 18.4707H8.26476C7.51361 18.4844 6.78076 18.2374 6.19103 17.7715C5.59784 17.3029 5.18656 16.6421 5.028 15.903L3.31685 7.9133C3.30855 7.88171 3.30165 7.84955 3.2962 7.81691L2.32968 3.30406H1.0389C0.440591 3.30406 -0.0444336 2.81903 -0.0444336 2.22072ZM5.70558 8.72072L7.14647 15.4485C7.14644 15.4484 7.14649 15.4486 7.14647 15.4485C7.19938 15.6947 7.33651 15.9152 7.53414 16.0713C7.73187 16.2275 7.97787 16.3099 8.2298 16.3043L8.2539 16.3041L18.8472 16.3041C18.847 16.3041 18.8473 16.3041 18.8472 16.3041C19.0935 16.3035 19.3329 16.2191 19.5248 16.0646C19.7168 15.9099 19.8504 15.6944 19.9034 15.4536L21.3986 8.72072H5.70558Z" fill="#5C543E"/>
</g>
<defs>
<clipPath id="clip0_313_311">
<rect width="26" height="26" fill="white"/>
</clipPath>
</defs>
</svg>
