<svg width="26" height="26" viewBox="0 0 26 26" fill="none" xmlns="http://www.w3.org/2000/svg">
<g>
<path fill-rule="evenodd" clip-rule="evenodd" d="M5.31836 21.7501C5.31836 20.5535 6.28841 19.5834 7.48503 19.5834C8.68164 19.5834 9.65169 20.5535 9.65169 21.7501C9.65169 22.9467 8.68164 23.9168 7.48503 23.9168C6.28841 23.9168 5.31836 22.9467 5.31836 21.7501Z" fill="#5C543E"/>
<path fill-rule="evenodd" clip-rule="evenodd" d="M17.2349 21.7501C17.2349 20.5535 18.2049 19.5834 19.4015 19.5834C20.5981 19.5834 21.5682 20.5535 21.5682 21.7501C21.5682 22.9467 20.5981 23.9168 19.4015 23.9168C18.2049 23.9168 17.2349 22.9467 17.2349 21.7501Z" fill="#5C543E"/>
<path fill-rule="evenodd" clip-rule="evenodd" d="M-0.0444336 1.22072C-0.0444336 0.622415 0.440591 0.13739 1.0389 0.13739H3.20557C3.71644 0.13739 4.15789 0.494301 4.26488 0.99385L5.24154 5.55406H22.7489C23.0775 5.55406 23.3883 5.70318 23.5939 5.95946C23.7995 6.21574 23.8777 6.55149 23.8065 6.87225L22.0194 14.9195C22.0193 14.9198 22.0195 14.9192 22.0194 14.9195C21.8602 15.6415 21.4595 16.2885 20.8836 16.7522C20.3074 17.2161 19.5903 17.4695 18.8506 17.4707H8.26476C7.51361 17.4844 6.78076 17.2374 6.19103 16.7715C5.59784 16.3029 5.18656 15.6421 5.028 14.903L3.31685 6.9133C3.30855 6.88171 3.30165 6.84955 3.2962 6.81691L2.32968 2.30406H1.0389C0.440591 2.30406 -0.0444336 1.81903 -0.0444336 1.22072ZM5.70558 7.72072L7.14647 14.4485C7.14649 14.4486 7.14644 14.4484 7.14647 14.4485C7.19938 14.6947 7.33651 14.9152 7.53414 15.0713C7.73187 15.2275 7.97787 15.3099 8.2298 15.3043L8.2539 15.3041L18.8472 15.3041C18.8473 15.3041 18.847 15.3041 18.8472 15.3041C19.0935 15.3035 19.3329 15.2191 19.5248 15.0646C19.7168 14.9099 19.8504 14.6944 19.9034 14.4536L21.3986 7.72072H5.70558Z" fill="#5C543E"/>
</g>
</svg>
