<svg width="66" height="72" viewBox="0 0 66 72" fill="none" xmlns="http://www.w3.org/2000/svg">
<path d="M58.6149 24.25L20.7799 2.55167C18.7326 1.36946 16.4088 0.750149 14.0447 0.756642C11.6806 0.763136 9.36034 1.3952 7.31956 2.58864C5.27878 3.78207 3.59022 5.49437 2.42536 7.5516C1.26051 9.60882 0.660877 11.9377 0.687364 14.3017V57.855C0.687364 61.4076 2.09862 64.8146 4.61067 67.3267C7.12272 69.8387 10.5298 71.25 14.0824 71.25C16.4341 71.246 18.7435 70.6248 20.7799 69.4483L58.6149 47.75C60.6478 46.5734 62.3357 44.8829 63.5091 42.848C64.6825 40.8132 65.3001 38.5056 65.3001 36.1567C65.3001 33.8078 64.6825 31.5001 63.5091 29.4653C62.3357 27.4305 60.6478 25.7399 58.6149 24.5633V24.25ZM54.6982 40.6608L16.8632 62.6725C16.0152 63.1531 15.0571 63.4057 14.0824 63.4057C13.1076 63.4057 12.1495 63.1531 11.3015 62.6725C10.4559 62.1843 9.75373 61.482 9.26558 60.6364C8.77744 59.7907 8.52053 58.8314 8.5207 57.855V14.145C8.52053 13.1686 8.77744 12.2093 9.26558 11.3636C9.75373 10.518 10.4559 9.81572 11.3015 9.3275C12.153 8.8542 13.1083 8.59857 14.0824 8.58333C15.0558 8.60331 16.0099 8.85864 16.8632 9.3275L54.6982 31.1825C55.5441 31.6705 56.2466 32.3727 56.7351 33.2183C57.2235 34.064 57.4807 35.0234 57.4807 36C57.4807 36.9766 57.2235 37.936 56.7351 38.7817C56.2466 39.6273 55.5441 40.3295 54.6982 40.8175V40.6608Z" fill="white"/>
</svg>
