<svg width="37" height="30" viewBox="0 0 37 30" fill="none" xmlns="http://www.w3.org/2000/svg">
<path d="M14.6001 27.6801C12.1201 28.6401 9.88008 29.1201 7.88008 29.1201C5.56008 29.1201 3.68008 28.4801 2.24008 27.2001C0.800078 25.9201 0.0800781 23.8801 0.0800781 21.0801C0.0800781 18.8401 0.880078 16.5201 2.48008 14.1201C4.16008 11.6401 6.64008 8.64008 9.92008 5.12008L14.6001 0.0800781L18.0801 2.36008L12.5601 13.1601C11.6001 15.0801 11.1201 16.7201 11.1201 18.0801C11.1201 19.6801 12.0401 21.1601 13.8801 22.5201L16.0401 23.9601L16.6401 26.8401L14.6001 27.6801ZM33.0801 27.6801C30.6001 28.6401 28.3601 29.1201 26.3601 29.1201C24.0401 29.1201 22.1601 28.4801 20.7201 27.2001C19.2801 25.9201 18.5601 23.8801 18.5601 21.0801C18.5601 18.8401 19.3601 16.5201 20.9601 14.1201C22.6401 11.6401 25.1201 8.64008 28.4001 5.12008L33.0801 0.0800781L36.5601 2.36008L31.0401 13.1601C30.0801 15.0801 29.6001 16.7201 29.6001 18.0801C29.6001 19.6801 30.5201 21.1601 32.3601 22.5201L34.5201 23.9601L35.1201 26.8401L33.0801 27.6801Z" fill="#D69978"/>
</svg>
