<svg width="187" height="40" viewBox="0 0 187 40" fill="none" xmlns="http://www.w3.org/2000/svg">
<path d="M48.48 30.2C47.9334 28.9467 47.3867 27.6933 46.84 26.44C46.2934 25.1867 45.7534 23.9267 45.22 22.66C45.06 22.2867 44.8934 21.88 44.72 21.44C44.5467 21 44.3734 20.5333 44.2 20.04C44.0267 19.5467 43.86 19.0467 43.7 18.54C43.7 18.8867 43.7 19.22 43.7 19.54C43.7 19.86 43.7 20.1667 43.7 20.46C43.6867 20.8733 43.6734 21.36 43.66 21.92C43.6467 22.4667 43.6267 23.0467 43.6 23.66C43.5867 24.2733 43.5734 24.8867 43.56 25.5C43.56 26.1 43.5534 26.68 43.54 27.24C43.54 27.56 43.5334 27.8733 43.52 28.18C43.5067 28.4867 43.4867 28.7533 43.46 28.98C43.7 28.9533 43.9534 28.94 44.22 28.94C44.5 28.9267 44.7467 28.9133 44.96 28.9V30H40.9V29.12C41.2734 29.1067 41.56 29.0333 41.76 28.9C41.96 28.7667 42.0934 28.5667 42.16 28.3C42.24 28.0333 42.2867 27.7067 42.3 27.32L42.58 18.68C42.5934 18.3867 42.6067 18.0933 42.62 17.8C42.6334 17.5067 42.6467 17.2467 42.66 17.02C42.42 17.0333 42.1667 17.0467 41.9 17.06C41.6334 17.06 41.4 17.0667 41.2 17.08V16H44.7L48 23.88C48.16 24.24 48.32 24.6267 48.48 25.04C48.64 25.44 48.8 25.84 48.96 26.24C49.1334 26.6267 49.2867 26.9933 49.42 27.34H49.46C49.6067 26.94 49.7734 26.5 49.96 26.02C50.1467 25.54 50.3067 25.1133 50.44 24.74C51.0134 23.3 51.5934 21.86 52.18 20.42C52.78 18.98 53.3667 17.5067 53.94 16H57.46V16.88C57.14 16.88 56.8667 16.94 56.64 17.06C56.4267 17.1667 56.2667 17.3667 56.16 17.66C56.0667 17.9533 56.0334 18.3733 56.06 18.92L56.5 27.54C56.5267 27.8067 56.5334 28.0667 56.52 28.32C56.52 28.5733 56.5134 28.7867 56.5 28.96C56.74 28.9467 56.9934 28.94 57.26 28.94C57.54 28.9267 57.78 28.9133 57.98 28.9V30H53.14V29.12C53.5267 29.1067 53.82 29.0267 54.02 28.88C54.2334 28.7333 54.3734 28.5067 54.44 28.2C54.5067 27.88 54.5267 27.4667 54.5 26.96L54.18 21.14C54.1667 20.94 54.1534 20.7067 54.14 20.44C54.1267 20.16 54.1067 19.8733 54.08 19.58C54.0667 19.2733 54.0534 18.98 54.04 18.7C54 18.7933 53.96 18.8933 53.92 19C53.88 19.0933 53.84 19.2 53.8 19.32L49.5 30.2H48.48Z" fill="#5C543E"/>
<path d="M66.691 24.94C66.691 24.3667 66.6043 23.9533 66.431 23.7C66.271 23.4467 66.0243 23.2933 65.691 23.24C65.3576 23.1733 64.9443 23.1533 64.451 23.18L63.291 23.22V27.38C63.291 27.74 63.2843 28.06 63.271 28.34C63.271 28.6067 63.2576 28.8267 63.231 29L66.671 28.96C67.191 28.9467 67.6576 28.8533 68.071 28.68C68.4843 28.4933 68.811 28.18 69.051 27.74C69.291 27.3 69.411 26.7 69.411 25.94H70.291L70.171 30H59.771V29.12C60.211 29.0933 60.5243 29 60.711 28.84C60.911 28.68 61.0376 28.44 61.091 28.12C61.1443 27.8 61.171 27.3933 61.171 26.9V18.58C61.171 18.2867 61.1776 18.0067 61.191 17.74C61.2043 17.46 61.2176 17.22 61.231 17.02C61.0043 17.0333 60.7576 17.0467 60.491 17.06C60.2243 17.0733 59.9843 17.0867 59.771 17.1V16H69.531L69.631 19.62H68.751C68.751 18.86 68.6243 18.28 68.371 17.88C68.131 17.48 67.811 17.2133 67.411 17.08C67.0243 16.9467 66.6043 16.8867 66.151 16.9L64.751 16.94C64.3376 16.94 64.0243 17.0133 63.811 17.16C63.5976 17.2933 63.4576 17.52 63.391 17.84C63.3243 18.1467 63.291 18.5667 63.291 19.1V22.24H66.591L66.471 20.52H67.571V24.94H66.691Z" fill="#5C543E"/>
<path d="M71.5719 30V29.12C72.1186 29 72.5786 28.7467 72.9519 28.36C73.3252 27.9733 73.7452 27.4533 74.2119 26.8L76.7319 23.3C75.9319 22.2067 75.2719 21.3067 74.7519 20.6C74.2319 19.88 73.7786 19.2733 73.3919 18.78C73.1519 18.42 72.9586 18.1133 72.8119 17.86C72.6786 17.5933 72.5586 17.3267 72.4519 17.06C72.2652 17.0733 72.0852 17.08 71.9119 17.08C71.7386 17.08 71.5652 17.0867 71.3919 17.1V16H76.8719V16.88L76.2119 16.9C75.7586 16.9133 75.4719 17 75.3519 17.16C75.2319 17.3067 75.2119 17.4933 75.2919 17.72C75.3852 17.9467 75.5186 18.1867 75.6919 18.44C75.9452 18.8267 76.2719 19.2933 76.6719 19.84C77.0719 20.3867 77.4919 20.9667 77.9319 21.58L79.7119 19.02C80.0452 18.58 80.3386 18.1867 80.5919 17.84C80.8586 17.48 81.0919 17.2067 81.2919 17.02C81.0386 17.0333 80.7652 17.0467 80.4719 17.06C80.1786 17.0733 79.9119 17.0867 79.6719 17.1V16H83.8119V16.88C83.4252 16.9333 83.0586 17.0867 82.7119 17.34C82.3652 17.5933 82.0319 17.9067 81.7119 18.28C81.4052 18.6533 81.0986 19.0533 80.7919 19.48L78.6319 22.5C79.0986 23.1 79.5519 23.6933 79.9919 24.28C80.4452 24.8533 80.8652 25.3933 81.2519 25.9C81.6386 26.4067 81.9652 26.84 82.2319 27.2C82.4586 27.4933 82.6786 27.7867 82.8919 28.08C83.1186 28.3733 83.3252 28.66 83.5119 28.94C83.7119 28.9267 83.8919 28.92 84.0519 28.92C84.2119 28.92 84.3786 28.9133 84.5519 28.9V30H79.2919V29.12C79.7986 29.1333 80.1319 29.0667 80.2919 28.92C80.4519 28.7733 80.4986 28.5933 80.4319 28.38C80.3652 28.1533 80.2452 27.9267 80.0719 27.7C79.7519 27.2733 79.3586 26.7733 78.8919 26.2C78.4386 25.6133 77.9519 24.96 77.4319 24.24C77.1119 24.6933 76.7919 25.1533 76.4719 25.62C76.1652 26.0733 75.8519 26.54 75.5319 27.02C75.2786 27.38 75.0386 27.72 74.8119 28.04C74.5852 28.36 74.3386 28.6733 74.0719 28.98C74.3252 28.9667 74.5919 28.9533 74.8719 28.94C75.1519 28.9267 75.4119 28.9133 75.6519 28.9V30H71.5719Z" fill="#5C543E"/>
<path d="M90.4722 16.88C90.0455 16.8933 89.7322 16.9867 89.5322 17.16C89.3322 17.32 89.2055 17.56 89.1522 17.88C89.0989 18.1867 89.0722 18.5933 89.0722 19.1V27.32C89.0722 27.68 89.0655 28.0067 89.0522 28.3C89.0522 28.58 89.0389 28.8067 89.0122 28.98C89.2389 28.9533 89.4855 28.94 89.7522 28.94C90.0322 28.9267 90.2722 28.9133 90.4722 28.9V30H85.5522V29.12C85.9922 29.0933 86.3055 29 86.4922 28.84C86.6922 28.68 86.8189 28.44 86.8722 28.12C86.9255 27.8 86.9522 27.3933 86.9522 26.9V18.58C86.9522 18.2867 86.9589 18.0067 86.9722 17.74C86.9855 17.46 86.9989 17.22 87.0122 17.02C86.7855 17.0333 86.5389 17.0467 86.2722 17.06C86.0055 17.0733 85.7655 17.0867 85.5522 17.1V16H90.4722V16.88Z" fill="#5C543E"/>
<path d="M103.208 20.46C103.061 19.26 102.648 18.34 101.968 17.7C101.288 17.0467 100.401 16.7133 99.3082 16.7C98.6148 16.7 97.9748 16.8533 97.3881 17.16C96.8015 17.4667 96.2948 17.9 95.8681 18.46C95.4415 19.0067 95.1082 19.66 94.8681 20.42C94.6415 21.1667 94.5281 21.9867 94.5281 22.88C94.5281 24.0933 94.7415 25.1733 95.1681 26.12C95.5948 27.0533 96.1815 27.78 96.9282 28.3C97.6881 28.82 98.5481 29.08 99.5081 29.08C100.361 29.08 101.201 28.88 102.028 28.48C102.868 28.0667 103.561 27.4867 104.108 26.74L104.768 27.3C104.168 28.1267 103.528 28.76 102.848 29.2C102.168 29.64 101.488 29.9333 100.808 30.08C100.141 30.24 99.5348 30.32 98.9882 30.32C97.9882 30.32 97.0681 30.14 96.2281 29.78C95.3881 29.42 94.6615 28.92 94.0481 28.28C93.4482 27.6267 92.9815 26.8733 92.6481 26.02C92.3281 25.1533 92.1681 24.22 92.1681 23.22C92.1681 22.2867 92.3148 21.3733 92.6082 20.48C92.9015 19.5867 93.3348 18.78 93.9081 18.06C94.4815 17.3267 95.2015 16.7467 96.0681 16.32C96.9482 15.8933 97.9682 15.68 99.1282 15.68C99.8082 15.68 100.468 15.7733 101.108 15.96C101.761 16.1467 102.388 16.4333 102.988 16.82L102.888 15.82H104.128V20.46H103.208Z" fill="#5C543E"/>
<path d="M104.999 30V29.1C105.399 29.1 105.705 28.9933 105.919 28.78C106.132 28.5667 106.312 28.28 106.459 27.92C106.605 27.5467 106.765 27.1333 106.939 26.68L110.979 15.62H111.779L116.159 26.84C116.265 27.0933 116.385 27.44 116.519 27.88C116.652 28.3067 116.712 28.6733 116.699 28.98C116.925 28.9533 117.145 28.94 117.359 28.94C117.585 28.9267 117.799 28.9133 117.999 28.9V30H113.139V29.12C113.605 29.1067 113.912 29.0067 114.059 28.82C114.219 28.62 114.279 28.38 114.239 28.1C114.212 27.82 114.145 27.54 114.039 27.26L113.439 25.64L108.539 25.76L107.959 27.5C107.879 27.7667 107.792 28.02 107.699 28.26C107.605 28.5 107.512 28.7333 107.419 28.96C107.659 28.9333 107.912 28.92 108.179 28.92C108.459 28.9067 108.705 28.8933 108.919 28.88V30H104.999ZM108.899 24.68H113.099L111.839 21.3C111.679 20.86 111.525 20.4267 111.379 20C111.232 19.56 111.099 19.14 110.979 18.74H110.959C110.852 19.0733 110.732 19.44 110.599 19.84C110.465 20.24 110.312 20.6733 110.139 21.14L108.899 24.68Z" fill="#5C543E"/>
<path d="M129.752 30.28L122.312 20.4C122.165 20.2267 122.025 20.0467 121.892 19.86C121.758 19.6733 121.618 19.48 121.472 19.28H121.452L121.512 27.06C121.512 27.3933 121.505 27.7267 121.492 28.06C121.492 28.3933 121.478 28.7 121.452 28.98C121.678 28.9533 121.925 28.94 122.192 28.94C122.472 28.9267 122.712 28.9133 122.912 28.9V30H118.952V29.12C119.325 29.12 119.605 29.0467 119.792 28.9C119.992 28.7533 120.125 28.56 120.192 28.32C120.272 28.08 120.312 27.8 120.312 27.48V18.52C120.312 18.2533 120.312 17.9867 120.312 17.72C120.312 17.4533 120.318 17.22 120.332 17.02C120.118 17.0333 119.878 17.0467 119.612 17.06C119.358 17.0733 119.132 17.0867 118.932 17.1V16H121.572L128.612 25.26C128.838 25.5533 129.038 25.8267 129.212 26.08C129.398 26.3333 129.578 26.5733 129.752 26.8H129.772L129.792 18.58C129.792 18.2867 129.798 18.0067 129.812 17.74C129.825 17.46 129.838 17.22 129.852 17.02C129.612 17.0333 129.358 17.0467 129.092 17.06C128.825 17.0733 128.592 17.0867 128.392 17.1V16H132.352V16.88C131.925 16.8933 131.612 16.9867 131.412 17.16C131.225 17.32 131.105 17.56 131.052 17.88C131.012 18.1867 130.992 18.5933 130.992 19.1L130.972 30.28H129.752Z" fill="#5C543E"/>
<path d="M134.224 30V29.12C134.664 29.1067 134.977 29.02 135.164 28.86C135.364 28.6867 135.491 28.4333 135.544 28.1C135.597 27.7667 135.624 27.3467 135.624 26.84V18.68C135.624 18.32 135.631 18 135.644 17.72C135.657 17.4267 135.671 17.1933 135.684 17.02C135.457 17.0333 135.211 17.0467 134.944 17.06C134.677 17.0733 134.437 17.0867 134.224 17.1V16C135.024 15.9867 135.824 15.98 136.624 15.98C137.424 15.9667 138.244 15.96 139.084 15.96C140.657 15.96 141.891 16.2467 142.784 16.82C143.677 17.38 144.104 18.26 144.064 19.46C144.051 19.8733 143.924 20.2867 143.684 20.7C143.457 21.1 143.111 21.46 142.644 21.78C142.177 22.0867 141.597 22.3133 140.904 22.46V22.5C142.331 22.5667 143.397 22.94 144.104 23.62C144.811 24.2867 145.164 25.1 145.164 26.06C145.164 26.8867 144.951 27.6 144.524 28.2C144.111 28.7867 143.544 29.2333 142.824 29.54C142.117 29.8467 141.304 30 140.384 30H134.224ZM137.684 29C137.911 29 138.157 29.0067 138.424 29.02C138.691 29.02 138.944 29.02 139.184 29.02C139.437 29.02 139.624 29.02 139.744 29.02C140.704 29.0067 141.457 28.7467 142.004 28.24C142.551 27.7333 142.824 27.0267 142.824 26.12C142.824 25.3733 142.671 24.7933 142.364 24.38C142.071 23.9533 141.684 23.6533 141.204 23.48C140.724 23.3067 140.211 23.22 139.664 23.22C139.291 23.22 138.951 23.2267 138.644 23.24C138.351 23.24 138.051 23.2467 137.744 23.26V27.36C137.744 27.72 137.737 28.04 137.724 28.32C137.724 28.6 137.711 28.8267 137.684 29ZM137.744 22.28L139.064 22.24C139.757 22.2267 140.304 22.08 140.704 21.8C141.117 21.52 141.411 21.16 141.584 20.72C141.757 20.28 141.837 19.82 141.824 19.34C141.824 18.6733 141.684 18.1667 141.404 17.82C141.124 17.4733 140.777 17.2333 140.364 17.1C139.951 16.9667 139.544 16.9 139.144 16.9C138.771 16.9 138.484 16.9533 138.284 17.06C138.084 17.1667 137.944 17.3533 137.864 17.62C137.784 17.8733 137.744 18.2533 137.744 18.76V22.28Z" fill="#5C543E"/>
<path d="M153.779 30.32C152.513 30.32 151.426 30.1067 150.519 29.68C149.626 29.2533 148.899 28.6867 148.339 27.98C147.779 27.26 147.366 26.4667 147.099 25.6C146.833 24.7333 146.699 23.8667 146.699 23C146.699 22.16 146.839 21.3133 147.119 20.46C147.413 19.5933 147.846 18.8 148.419 18.08C149.006 17.36 149.733 16.78 150.599 16.34C151.479 15.9 152.506 15.68 153.679 15.68C154.906 15.68 155.959 15.9 156.839 16.34C157.733 16.78 158.466 17.3667 159.039 18.1C159.613 18.82 160.039 19.6067 160.319 20.46C160.613 21.3133 160.759 22.16 160.759 23C160.759 23.8267 160.613 24.6733 160.319 25.54C160.039 26.3933 159.606 27.1867 159.019 27.92C158.446 28.64 157.726 29.22 156.859 29.66C155.993 30.1 154.966 30.32 153.779 30.32ZM153.879 29.28C154.653 29.28 155.319 29.1067 155.879 28.76C156.453 28.4133 156.919 27.9533 157.279 27.38C157.653 26.7933 157.926 26.1533 158.099 25.46C158.273 24.7533 158.359 24.0533 158.359 23.36C158.359 22.5067 158.259 21.6867 158.059 20.9C157.859 20.1 157.553 19.3867 157.139 18.76C156.739 18.12 156.239 17.62 155.639 17.26C155.039 16.8867 154.346 16.7 153.559 16.7C152.786 16.7 152.113 16.88 151.539 17.24C150.966 17.6 150.499 18.0733 150.139 18.66C149.779 19.2333 149.506 19.8733 149.319 20.58C149.146 21.2733 149.059 21.9733 149.059 22.68C149.059 23.3733 149.153 24.1067 149.339 24.88C149.526 25.6533 149.813 26.3733 150.199 27.04C150.586 27.7067 151.079 28.2467 151.679 28.66C152.293 29.0733 153.026 29.28 153.879 29.28Z" fill="#5C543E"/>
<path d="M162.447 30V29.12C162.887 29.0933 163.2 29 163.387 28.84C163.587 28.68 163.713 28.44 163.767 28.12C163.82 27.8 163.847 27.3933 163.847 26.9V18.58C163.847 18.2867 163.853 18.0067 163.867 17.74C163.88 17.46 163.893 17.22 163.907 17.02C163.68 17.0333 163.433 17.0467 163.167 17.06C162.9 17.0733 162.66 17.0867 162.447 17.1V16H167.367V16.88C166.94 16.8933 166.627 16.9867 166.427 17.16C166.227 17.32 166.1 17.56 166.047 17.88C165.993 18.1867 165.967 18.5933 165.967 19.1V27.38C165.967 27.74 165.96 28.06 165.947 28.34C165.947 28.6067 165.933 28.8267 165.907 29L169.287 28.96C170.113 28.9467 170.747 28.68 171.187 28.16C171.627 27.6267 171.847 26.7867 171.847 25.64H172.747L172.627 30H162.447Z" fill="#5C543E"/>
<path d="M173.378 30V29.1C173.778 29.1 174.084 28.9933 174.298 28.78C174.511 28.5667 174.691 28.28 174.838 27.92C174.984 27.5467 175.144 27.1333 175.318 26.68L179.358 15.62H180.158L184.538 26.84C184.644 27.0933 184.764 27.44 184.898 27.88C185.031 28.3067 185.091 28.6733 185.078 28.98C185.304 28.9533 185.524 28.94 185.738 28.94C185.964 28.9267 186.178 28.9133 186.378 28.9V30H181.518V29.12C181.984 29.1067 182.291 29.0067 182.438 28.82C182.598 28.62 182.658 28.38 182.618 28.1C182.591 27.82 182.524 27.54 182.418 27.26L181.818 25.64L176.918 25.76L176.338 27.5C176.258 27.7667 176.171 28.02 176.078 28.26C175.984 28.5 175.891 28.7333 175.798 28.96C176.038 28.9333 176.291 28.92 176.558 28.92C176.838 28.9067 177.084 28.8933 177.298 28.88V30H173.378ZM177.278 24.68H181.478L180.218 21.3C180.058 20.86 179.904 20.4267 179.758 20C179.611 19.56 179.478 19.14 179.358 18.74H179.338C179.231 19.0733 179.111 19.44 178.978 19.84C178.844 20.24 178.691 20.6733 178.518 21.14L177.278 24.68Z" fill="#5C543E"/>
<g clip-path="url(#clip0_201_683)">
<path d="M12.1097 39.9932C12.0045 39.983 11.6819 39.9521 11.3926 39.9245C9.59698 39.7532 7.50533 39.0338 5.89511 38.0335C4.33016 37.0614 2.82684 35.5609 1.86625 34.0121C-0.988555 29.4092 -0.532489 23.6098 2.98992 19.7232C4.13091 18.4643 5.63743 17.4284 7.19531 16.8316C7.89566 16.5633 8.87034 16.3129 9.62386 16.2077C10.3329 16.1087 11.6035 16.0953 12.277 16.1799C13.3661 16.3165 14.5536 16.6675 15.5627 17.1508C15.8317 17.2797 16.0736 17.3851 16.1004 17.3851C16.133 17.3851 16.1529 14.5404 16.161 8.69256L16.1731 0H16.8185H17.4638L17.4943 0.743363C17.5181 1.32532 17.5522 1.59013 17.6515 1.96294C17.8961 2.88186 18.1972 3.49772 18.7251 4.15867C19.1329 4.66928 20.1496 5.64377 21.2404 6.56971C24.0293 8.93701 25.1906 10.1906 25.915 11.6157C26.4581 12.684 26.6445 13.5269 26.6054 14.7376C26.585 15.3716 26.5582 15.5784 26.4361 16.045C26.2458 16.7721 25.9165 17.6793 25.5379 18.5196C25.3697 18.893 25.2321 19.2407 25.2321 19.2923C25.2321 19.3439 25.3157 19.5671 25.4179 19.7884C25.7151 20.432 26.1149 21.6611 26.3045 22.5145C27.0535 25.8843 26.6348 29.3065 25.1025 32.3383C24.2131 34.0981 23.0579 35.5492 21.5033 36.8592C20.9989 37.2843 20.1371 37.8752 19.4762 38.2493C17.5397 39.3452 15.4057 39.9335 13.1614 39.99C12.6882 40.002 12.2149 40.0034 12.1097 39.9932ZM13.5438 38.5362C17.9125 38.2705 21.8412 35.6443 23.8303 31.66C24.4628 30.3929 24.8766 29.0923 25.0989 27.6723C25.2388 26.779 25.2495 24.9216 25.12 24.0076C24.9571 22.858 24.4482 20.982 24.2991 20.982C24.2671 20.982 24.1811 21.0738 24.1081 21.1859C23.7448 21.7437 23.278 22.211 23.204 22.091C23.1893 22.067 23.3706 21.6707 23.6071 21.2102C23.8435 20.7498 24.037 20.3371 24.037 20.2931C24.037 20.1389 23.447 19.0328 22.9975 18.3443C22.0191 16.8456 20.7528 15.5444 19.2543 14.4981C18.7486 14.145 17.6481 13.5004 17.5508 13.5004C17.4994 13.5004 17.4877 13.9502 17.4877 15.9359V18.3713L17.826 18.6575C18.012 18.815 18.3481 19.1488 18.5729 19.3994C19.8243 20.7948 20.6103 22.395 20.9396 24.2179C21.0805 24.9977 21.0899 26.4672 20.9588 27.2167C20.4746 29.9856 18.8474 32.2682 16.4838 33.4937C13.3942 35.0958 9.75794 34.548 7.4575 32.1339C6.30337 30.9228 5.67253 29.4642 5.60042 27.8402C5.55906 26.9086 5.62967 26.4425 5.89464 25.8978C6.01014 25.6604 6.2155 25.3318 6.351 25.1676C7.06448 24.3029 8.42983 23.4467 10.0063 22.8754C11.2671 22.4184 12.0585 22.2793 13.4061 22.2779C14.3689 22.2768 14.8303 22.3371 15.6144 22.5664C15.8855 22.6457 16.1275 22.698 16.1522 22.6827C16.2135 22.6447 16.2115 19.3244 16.1501 19.2093C16.0458 19.0138 14.8995 18.391 14.0936 18.092C13.5584 17.8935 12.7501 17.6967 12.1827 17.6268C11.604 17.5556 10.3288 17.5668 9.75835 17.6482C5.54971 18.2484 2.22576 21.6278 1.54963 25.9937C1.10733 28.8497 1.93409 31.8979 3.7868 34.2419C5.70161 36.6646 8.59247 38.2182 11.7273 38.5094C12.5709 38.5878 12.6711 38.5893 13.5438 38.5362ZM14.1148 32.8262C15.4303 32.5398 16.4416 31.9942 17.4204 31.043C18.5292 29.9654 19.1936 28.7233 19.5057 27.1448C19.6408 26.4611 19.6506 25.1774 19.5259 24.483C19.3595 23.5564 19.0257 22.6225 18.583 21.8453C18.417 21.5539 17.9103 20.8336 17.6498 20.5186C17.4983 20.3355 17.4877 20.4463 17.4856 22.241C17.4829 24.5987 17.4589 24.8775 17.2134 25.403C16.9307 26.0083 16.5707 26.5149 16.0579 27.0289C14.1324 28.9594 10.0269 30.0552 7.70061 29.2596C7.51047 29.1946 7.34307 29.1606 7.32862 29.184C7.29283 29.2421 7.51387 29.7598 7.74252 30.1534C8.59569 31.6221 10.2164 32.6719 12.0141 32.9203C12.5335 32.992 13.5656 32.9458 14.1148 32.8262ZM25.1284 18.0925C25.5099 17.1073 25.6255 16.5625 25.6212 15.7691C25.6123 14.1153 24.8826 12.2706 23.7157 10.9521C23.0139 10.1591 22.2262 9.63381 20.8101 9.01459C19.6502 8.50737 17.8039 7.95636 17.5682 8.0471C17.4946 8.0754 17.4877 8.24147 17.4877 9.97659V11.8751L17.7626 11.9943C19.606 12.7935 21.7058 14.4018 23.1366 16.1104C23.6366 16.7075 24.3937 17.7909 24.6887 18.3316C24.7641 18.4697 24.851 18.583 24.8819 18.5834C24.9127 18.5838 25.0237 18.3629 25.1284 18.0925Z" fill="#5C543E"/>
</g>
<defs>
<clipPath id="clip0_201_683">
<rect width="26.6667" height="40" fill="white"/>
</clipPath>
</defs>
</svg>
