<?xml version="1.0" standalone="no"?>
<!DOCTYPE svg PUBLIC "-//W3C//DTD SVG 20010904//EN"
 "http://www.w3.org/TR/2001/REC-SVG-20010904/DTD/svg10.dtd">
<svg version="1.0" xmlns="http://www.w3.org/2000/svg"
 width="700.000000pt" height="700.000000pt" viewBox="0 0 700.000000 700.000000"
 preserveAspectRatio="xMidYMid meet">
<metadata>
Created by potrace 1.14, written by Peter Selinger 2001-2017
</metadata>
<g transform="translate(0.000000,700.000000) scale(0.100000,-0.100000)"
fill="#000000" stroke="none">
<path d="M3819 5343 c-1 -753 -4 -1380 -8 -1395 l-6 -27 -75 35 c-106 50 -281
109 -402 136 -91 20 -129 23 -328 23 -181 0 -242 -4 -315 -19 -375 -78 -677
-239 -939 -502 -270 -271 -452 -638 -511 -1030 -20 -133 -20 -415 1 -552 77
-522 356 -987 787 -1311 261 -195 580 -329 937 -393 119 -21 549 -17 675 6
246 45 464 117 655 218 636 336 1070 935 1195 1653 37 213 37 560 0 777 -31
178 -105 428 -169 572 -14 32 -26 67 -26 78 0 10 25 79 56 151 79 183 141 377
155 483 32 238 -23 476 -158 691 -118 189 -273 351 -635 664 -286 248 -461
422 -526 521 -100 154 -141 313 -152 581 0 4 -47 7 -105 7 l-105 0 -1 -1367z
m361 57 c216 -55 509 -177 661 -275 99 -63 250 -220 317 -328 141 -227 212
-503 184 -719 -14 -111 -91 -348 -112 -348 -5 0 -26 28 -46 63 -251 412 -624
760 -1026 955 l-117 57 -1 308 0 307 31 0 c17 0 66 -9 109 -20z m6 -931 c300
-180 552 -420 737 -701 67 -102 167 -288 167 -311 0 -8 -30 -77 -67 -151 -36
-75 -63 -139 -59 -143 7 -8 82 68 142 143 l31 39 17 -33 c25 -49 92 -320 112
-452 25 -176 15 -529 -21 -699 -69 -327 -221 -652 -422 -901 -81 -100 -258
-271 -361 -348 -280 -209 -618 -343 -972 -383 -159 -18 -425 -6 -576 25 -390
82 -707 256 -978 537 -233 241 -384 529 -458 869 -19 91 -22 135 -23 325 0
194 3 233 23 329 106 494 414 900 847 1116 236 118 393 154 670 154 213 1 283
-10 465 -70 112 -37 279 -120 332 -164 l33 -28 0 -270 c0 -149 -3 -273 -7
-277 -4 -4 -53 5 -110 20 -91 25 -126 28 -296 33 -235 5 -336 -9 -532 -74
-327 -110 -607 -298 -697 -469 -50 -96 -63 -155 -63 -286 0 -209 47 -385 145
-548 157 -259 410 -446 715 -528 129 -34 380 -44 515 -19 550 102 957 505
1091 1081 15 64 19 120 19 285 0 178 -3 219 -23 310 -72 319 -247 618 -486
827 l-54 48 -1 393 c-1 325 1 392 13 392 7 0 67 -32 132 -71z m-109 -1071 c81
-90 181 -267 231 -408 57 -163 67 -228 66 -425 -1 -159 -4 -191 -27 -276 -61
-230 -152 -393 -309 -550 -214 -214 -470 -319 -778 -319 -340 0 -667 197 -822
497 -59 114 -56 117 69 81 66 -19 104 -22 238 -23 234 0 436 43 663 141 288
125 474 289 578 508 37 77 37 80 45 244 4 92 8 254 8 360 1 105 5 192 9 192 5
0 18 -10 29 -22z"/>
</g>
</svg>
